<svg xmlns="http://www.w3.org/2000/svg" viewBox="0 0 512 512" role="img" aria-label="ゆらぐー！">
    <title>ゆらぐー！</title>
    <g transform="translate(36 72) scale(0.86)">
    <defs>
      <radialGradient id="bodyi" cx="42%" cy="32%" r="80%">
        <stop offset="0%" stop-color="#b2f4e3"/>
        <stop offset="55%" stop-color="#78dfc5"/>
        <stop offset="100%" stop-color="#4cba9c"/>
      </radialGradient>
      <clipPath id="clipi"><path d="M256 86 C334 78 408 128 430 208 C448 276 426 358 358 402 C298 440 208 442 148 404 C82 362 62 276 84 208 C108 130 178 94 256 86 Z" transform="translate(256 264) scale(1.16 0.9) translate(-256 -264)"/></clipPath>
    </defs>
    <ellipse cx="258" cy="452" rx="176.32" ry="20" fill="#72546a" opacity="0.2"/>
    <g transform="translate(256 264) scale(1.16 0.9) translate(-256 -264)">
      <path d="M256 86 C334 78 408 128 430 208 C448 276 426 358 358 402 C298 440 208 442 148 404 C82 362 62 276 84 208 C108 130 178 94 256 86 Z" fill="url(#bodyi)"/>
    </g>
    <g clip-path="url(#clipi)">
      <ellipse cx="256" cy="410" rx="220" ry="90" fill="#27a98b" opacity="0.3"/>
    </g>
    <path d="M256 86 C334 78 408 128 430 208 C448 276 426 358 358 402 C298 440 208 442 148 404 C82 362 62 276 84 208 C108 130 178 94 256 86 Z" transform="translate(256 264) scale(1.16 0.9) translate(-256 -264)" fill="none" stroke="#1f8f74" stroke-width="7" opacity="0.75"/>
    <ellipse cx="150" cy="168" rx="42" ry="20" fill="#ffffff" opacity="0.35" transform="rotate(-32 150 168)"/>
    <ellipse cx="180.4" cy="226" rx="31" ry="38" fill="#f4fff9"/>
    <ellipse cx="333.6" cy="226" rx="31" ry="38" fill="#f4fff9"/>
    <circle cx="172.4" cy="230" r="14" fill="#402f3b"/>
    <circle cx="325.6" cy="230" r="14" fill="#402f3b"/>
    <circle cx="178.4" cy="222" r="5" fill="#ffffff"/>
    <circle cx="331.6" cy="222" r="5" fill="#ffffff"/>
    <ellipse cx="256" cy="325" rx="14" ry="18" fill="none" stroke="#402f3b" stroke-width="10"/>
  </g>
  </svg>